<?xml version="1.0" encoding="UTF-8" standalone="no"?>
<svg xmlns="http://www.w3.org/2000/svg" width="200" height="200" viewBox="0 0 200 200">
  <rect width="200" height="200" fill="#f0f0f0"/>
  <g fill="#888888">
    <path d="M100,50 C88.954,50 80,58.954 80,70 C80,81.046 88.954,90 100,90 C111.046,90 120,81.046 120,70 C120,58.954 111.046,50 100,50 Z M100,95 C83.333,95 50,103.333 50,120 L50,135 L150,135 L150,120 C150,103.333 116.667,95 100,95 Z"/>
    <path d="M40,60 L40,150 L160,150 L160,60 L40,60 Z M45,65 L155,65 L155,145 L45,145 L45,65 Z"/>
    <path d="M70,75 L70,85 L80,85 L80,75 L70,75 Z"/>
    <path d="M90,75 L90,85 L100,85 L100,75 L90,75 Z"/>
    <path d="M110,75 L110,85 L120,85 L120,75 L110,75 Z"/>
    <path d="M130,75 L130,85 L140,85 L140,75 L130,75 Z"/>
    <path d="M70,95 L70,105 L80,105 L80,95 L70,95 Z"/>
    <path d="M90,95 L90,105 L100,105 L100,95 L90,95 Z"/>
    <path d="M110,95 L110,105 L120,105 L120,95 L110,95 Z"/>
    <path d="M130,95 L130,105 L140,105 L140,95 L130,95 Z"/>
    <path d="M70,115 L70,125 L80,125 L80,115 L70,115 Z"/>
    <path d="M90,115 L90,125 L100,125 L100,115 L90,115 Z"/>
    <path d="M110,115 L110,125 L120,125 L120,115 L110,115 Z"/>
    <path d="M130,115 L130,125 L140,125 L140,115 L130,115 Z"/>
  </g>
</svg>
